<svg width="290" height="190" viewBox="0 0 290 190" fill="none" xmlns="http://www.w3.org/2000/svg">
<path d="M138.395 86.3767H117.706V95.2268H138.395V86.3767Z" fill="#2A2C64"/>
<path d="M133.104 57.7859C133.104 57.7859 113.618 67.6661 124.849 84.8008C124.849 84.8008 135.387 91.4592 131.242 102.672C127.097 113.885 134.197 126.277 143.655 131.602C143.655 131.602 150.75 139.273 147.202 151.078C143.655 162.882 147.321 161.269 147.321 161.269H194.095L148.963 87.9174L151.918 75.5255L133.104 57.7859Z" fill="#2A2C64"/>
<path d="M186.302 149.355L200.15 94.1813L150.531 80.6804L143.65 83.8847L186.302 149.355Z" fill="#2A2C64"/>
<path d="M176.993 10.4145C176.404 10.3051 175.803 10.2756 175.206 10.3269C175.926 7.64424 176.445 3.8526 175.522 1.70473C174.148 -1.50392 161.766 -0.127529 157.639 5.36487C154.311 9.80525 167.053 12.1372 172.137 12.8736C171.496 16.1305 167.602 15.2494 166.399 17.051C165.196 18.8526 165.793 19.7731 166.399 21.8728C167.005 23.9724 165.187 23.3806 163.676 24.5905C162.166 25.8003 160.195 27.4616 162.917 28.6714L178.052 31.3891C178.349 30.8399 178.561 30.2487 178.679 29.6358C178.78 29.6664 178.877 29.6971 178.978 29.719C179.378 29.829 179.789 29.8952 180.203 29.9163H180.401C181.435 29.933 182.434 29.5443 183.184 28.8336C185.709 26.4929 185.573 22.1884 185.116 19.2865H187.751C187.751 19.2865 191.373 9.95867 176.993 10.4145ZM182.289 27.9087C181.746 28.4287 181.011 28.6988 180.26 28.6539C179.716 28.622 179.181 28.5037 178.675 28.3032C178.567 27.8124 178.296 27.3723 177.907 27.0539C176.089 25.5417 174.578 24.3318 175.786 23.1089C176.993 21.8859 176.695 20.3912 175.786 19.1638L175.746 19.1419C175.544 18.845 175.579 18.4465 175.831 18.1897C176.083 17.933 176.481 17.8894 176.783 18.0855L178.649 19.326H183.768C184.216 21.9604 184.431 25.923 182.289 27.9087Z" fill="#2A2C64"/>
<path d="M285.009 126.842C282.51 117.334 277.005 110.593 269.501 107.853C261.997 105.114 253.435 106.722 245.383 112.377C243.825 113.475 242.343 114.677 240.948 115.976L228.904 82.3111C226.574 75.8354 221.016 71.0518 214.257 69.7045C213.425 69.538 212.583 69.4267 211.737 69.3713L212.479 69.6957L211.574 70.682C212.123 70.7127 212.668 70.7696 213.203 70.8529C219.843 71.876 225.39 76.4421 227.662 82.7539L235.539 104.772L235.262 104.609L201.976 160.594H127.282C127.695 159.626 128.09 158.631 128.459 157.622C133.42 144.073 133.012 130.349 128.331 120.552L131.778 116.344L130.759 115.511L127.686 119.268C124.819 113.924 120.599 109.9 115.229 107.936C99.941 102.361 81.0083 115.568 73.0173 137.389C69.7901 146.204 68.8373 155.097 69.856 162.935C71.3576 174.49 77.1445 183.747 86.2508 187.074C87.0008 187.347 87.7661 187.575 88.5428 187.758C88.9818 187.872 89.4209 187.964 89.8907 188.039C91.1045 188.248 92.334 188.352 93.5657 188.35C95.3387 188.346 97.1057 188.146 98.8346 187.754C103.919 186.619 108.986 183.896 113.579 179.899C118.777 175.379 123.374 169.23 126.707 161.927H202.727L235.973 106.003L239.925 116.984C234.441 122.38 229.963 129.468 227.012 137.529C223.236 147.843 222.547 158.262 224.474 166.994C226.608 176.668 231.938 184.269 239.842 187.381L240.092 187.478L240.342 187.57C241.801 188.092 243.314 188.454 244.852 188.648C245.791 188.767 246.737 188.827 247.684 188.828C248.711 188.827 249.738 188.758 250.757 188.622C252.622 188.378 254.456 187.937 256.228 187.307C267.099 183.454 277.444 172.622 282.835 157.894C286.712 147.286 287.49 136.258 285.009 126.842ZM127.418 121.67C131.703 131.098 131.967 144.214 127.22 157.175C126.781 158.341 126.342 159.485 125.846 160.599H95.5108L127.418 121.67ZM86.6987 185.843C72.0952 180.512 66.5015 158.981 74.2511 137.844C80.8064 119.938 94.8522 107.993 107.875 107.993C110.227 107.987 112.563 108.395 114.773 109.199C119.998 111.106 124.068 115.086 126.79 120.381L92.7315 161.909H125.253C116.7 180.188 100.178 190.761 86.6987 185.843ZM281.593 157.438C275.494 174.095 262.954 185.659 250.739 187.324C249.739 187.464 248.729 187.534 247.719 187.535C246.783 187.536 245.849 187.473 244.922 187.346C243.504 187.154 242.112 186.81 240.768 186.32C226.055 180.951 220.43 159.257 228.228 137.967C231.03 130.305 235.253 123.546 240.391 118.338L249.773 144.569L251.016 144.13L241.427 117.326C242.901 115.922 244.477 114.628 246.142 113.455C251.411 109.76 256.869 107.871 262.067 107.871C264.448 107.864 266.811 108.277 269.049 109.089C276.135 111.676 281.343 118.097 283.735 127.175C286.146 136.337 285.386 147.085 281.593 157.438Z" fill="#2A2C64"/>
<path d="M205.537 72.1635L204.22 71.2869V82.9686H205.537V72.1635Z" fill="#2A2C64"/>
<path d="M231.701 94.3215H200.088V95.6366H231.701V94.3215Z" fill="#2A2C64"/>
<path d="M188.857 167.555L184.646 162.755L178.381 165.447L176.624 161.914L175.966 160.599L175.724 160.116L168.48 160.594L166.254 160.743L166.447 161.252L166.693 161.909L171.215 173.937L176.185 172.706L175.035 169.637L178.047 170.641L188.857 167.555ZM174.429 171.785L172.049 172.381L168.12 161.94L168.51 161.914L174.912 161.475L175.127 161.914L177.762 167.143L184.313 164.338L186.508 166.863L178.073 169.269L172.831 167.516L174.429 171.785Z" fill="#2A2C64"/>
<path d="M190.348 167.728L167.072 176.13L168.477 180.006L191.753 171.604L190.348 167.728Z" fill="#2A2C64"/>
<path d="M118.432 63.5369H76.6987V64.8519H118.432V63.5369Z" fill="#2A2C64"/>
<path d="M112.465 77.7305H88.6196V79.0455H112.465V77.7305Z" fill="#2A2C64"/>
<path d="M109.256 96.5046H73.0283V97.8197H109.256V96.5046Z" fill="#2A2C64"/>
<path d="M183.672 50.5096L178.916 29.4693L177.63 29.7586L182.508 51.3118L203.188 64.3305L198.477 69.858L173.551 60.9509L170.038 46.6259L167.689 37.057L166.407 37.3726L168.603 46.2796C157.033 61.341 136.665 55.0947 132.318 53.5342L167.444 27.6721L166.662 26.6113L129.363 54.0733L153.306 78.4582L171.672 58.7767L172.458 61.981L198.903 71.4097L205.164 64.0456L183.672 50.5096ZM153.266 76.5207L132.033 54.8974C136.318 56.4116 140.801 57.2975 145.341 57.5275C145.926 57.5538 146.512 57.5669 147.097 57.5669C156.238 57.5669 163.751 54.2618 168.993 47.9234L171.272 57.2118L153.266 76.5207Z" fill="#2A2C64"/>
<path d="M230.753 78.6248L238.121 98.7358H266.05L275.415 79.5847L230.753 78.6248ZM249.787 80.3518L249.484 80.5885L251.402 83.0345L243.209 89.4781L237.848 80.0932L249.787 80.3518ZM254.41 97.4208H246.379L247.407 96.8334L243.868 90.6353L252.21 84.0602L258.612 92.2133L254.142 97.1885L254.41 97.4208ZM259.437 93.2522L262.713 97.4208H255.688L259.437 93.2522ZM232.654 79.9836L237.321 80.0844L236.575 80.5228L242.164 90.3153L238.178 93.4538L238.994 94.4839L242.827 91.4725L246.23 97.4339H239.043L232.654 79.9836ZM265.229 97.4208H263.033L263.885 96.7545L260.351 92.2571L267.046 84.7615L266.063 83.8848L259.503 91.192L253.251 83.2361L254.129 82.5523L253.317 81.5178L252.439 82.2016L250.99 80.3606L273.308 80.8384L265.229 97.4208Z" fill="#2A2C64"/>
<path d="M153.705 12.3915C141.842 0.55016 122.61 0.55016 110.747 12.3915L99.2034 23.9155L132.489 57.146L133.42 56.2167L108.297 31.1349L124.669 18.1338C128.573 15.0454 129.404 9.46254 126.571 5.37369C128.436 5.00768 130.333 4.82417 132.235 4.82576C139.941 4.80407 147.337 7.85962 152.774 13.312L166.614 27.1373L167.545 26.208L153.705 12.3915ZM126.882 11.5587C126.666 13.7389 125.571 15.7375 123.848 17.0949L107.361 30.1969L101.065 23.9155L111.677 13.312C115.39 9.59215 120.049 6.95493 125.152 5.68491C126.48 7.33974 127.101 9.44986 126.882 11.5587Z" fill="#2A2C64"/>
<path d="M175.228 98.1173L163.971 114.005L165.051 114.767L176.308 98.8796L175.228 98.1173Z" fill="white"/>
<path d="M198.903 96.2152C182.596 96.0399 157.837 95.8821 156.467 96.1758C156.566 96.1497 156.655 96.0966 156.726 96.0223L155.795 95.0931C156.085 94.8038 156.278 94.6109 177.748 94.7292C188.233 94.7862 198.824 94.9002 198.907 94.9002L198.903 96.2152Z" fill="white"/>
<path d="M186.618 150.381L148.05 89.4516L152.647 85.8835L153.455 86.9224L149.802 89.7585L187.733 149.68L186.618 150.381Z" fill="white"/>
<path d="M131.027 110.141L130.588 108.901C136.669 106.792 140.845 103.25 141.499 99.6648C141.819 97.8501 141.156 96.2107 139.58 94.922C133.903 90.2844 137.341 80.0184 139.892 75.7622C140.132 75.3648 140.172 74.8787 140.002 74.4471C138.904 70.9404 129.372 66.0442 125.789 64.4486L126.329 63.2476C126.878 63.493 139.76 69.2923 141.257 74.0526C141.537 74.8368 141.452 75.7047 141.025 76.4197C138.101 81.2809 135.892 90.1879 140.414 93.8875C142.355 95.4699 143.198 97.6003 142.794 99.8796C142.057 103.952 137.547 107.875 131.027 110.141Z" fill="white"/>
<path d="M149.433 142.622L148.871 141.434C148.95 141.399 156.555 137.796 159.176 134.307C159.607 133.831 159.731 133.151 159.496 132.554C158.653 130.41 153.749 128.332 149.494 127.557C148.805 127.434 147.87 127.18 147.659 126.399C147.4 125.439 148.427 124.571 149.854 123.366C151.782 121.731 154.179 119.697 153.573 117.47C153.482 117.141 153.237 116.876 152.915 116.76C149.762 115.445 139.115 120.767 135.277 122.928L134.632 121.784C136.098 120.955 149.121 113.749 153.42 115.546C154.125 115.82 154.657 116.415 154.851 117.146C155.681 120.179 152.814 122.612 150.719 124.387C150.056 124.948 149.169 125.702 148.985 126.062C149.226 126.176 149.484 126.251 149.749 126.285C153.516 126.969 159.553 129.082 160.726 132.093C161.125 133.113 160.936 134.268 160.234 135.109C157.411 138.848 149.758 142.473 149.433 142.622Z" fill="white"/>
<path d="M189.559 161.8C189.498 161.703 183.491 152.121 179.127 149.943C177.854 149.307 177.533 149.412 177.52 149.421C177.331 149.732 177.797 151.529 178.135 152.844C178.554 154.376 178.894 155.929 179.153 157.495C179.285 158.372 179.347 159.389 178.613 159.805C177.621 160.366 176.304 159.275 173.678 157.105C170.706 154.655 166.653 151.293 162.262 149.982C160.48 149.452 159.189 149.579 158.416 150.363C156.423 152.389 157.797 158.438 158.495 160.599L157.24 161.002C157.125 160.656 154.522 152.45 157.472 149.443C158.614 148.281 160.353 148.04 162.64 148.724C167.272 150.109 171.461 153.568 174.517 156.093C175.768 157.127 177.296 158.389 177.911 158.6C177.928 158.298 177.909 157.995 177.854 157.697C177.598 156.173 177.265 154.663 176.857 153.173C176.203 150.64 175.812 149.114 176.712 148.387C177.467 147.777 178.653 148.237 179.715 148.768C184.414 151.113 190.424 160.7 190.692 161.107L189.559 161.8Z" fill="white"/>
<path d="M189.573 135.061C188.255 134.114 176.734 125.698 177.336 121.446C177.428 120.797 177.827 119.925 179.197 119.434C180.018 119.14 180.892 118.842 181.792 118.535C185.7 117.22 191.601 115.191 191.838 113.538C191.9 113.1 191.399 112.662 190.96 112.35C188.589 110.694 187.518 108.287 188.225 106.214C188.664 104.973 190.385 102.124 197.331 102.453L197.265 103.768C193.068 103.57 190.152 104.644 189.472 106.643C188.958 108.142 189.836 109.962 191.715 111.272C192.782 112.017 193.256 112.841 193.133 113.722C192.809 116.006 188.598 117.602 182.205 119.78C181.327 120.087 180.449 120.381 179.632 120.657C178.815 120.933 178.671 121.345 178.631 121.617C178.262 124.247 185.612 130.585 190.332 133.978L189.573 135.061Z" fill="white"/>
<path d="M162.649 91.8713C161.924 91.8888 161.21 91.6954 160.594 91.3146C157.679 89.456 158.838 83.7181 158.908 83.4771L160.194 83.7444C159.9 85.1603 159.518 89.0703 161.301 90.2056C162.438 90.9288 165.002 90.8806 170.772 86.563L171.562 87.615C167.76 90.4598 164.813 91.8713 162.649 91.8713Z" fill="white"/>
<path d="M204.532 64.8039L203.122 64.1902L203.065 64.2735L202.297 65.3825L199.364 69.6387L200.014 70.0771L204.22 72.8781L205.537 73.7548L208.646 75.8237L213.203 70.8617L214.257 69.7133L214.696 69.2355L204.532 64.8039ZM212.479 69.6957L211.574 70.682L208.439 74.0967L205.537 72.1636L204.22 71.2869L201.212 69.2837L203.342 66.2153L203.596 65.8427H203.64L211.741 69.3494L212.479 69.6957Z" fill="#2A2C64"/>
<path d="M73.9633 8.04693L47.9678 26.6284L66.5918 52.5923L92.5873 34.0108L73.9633 8.04693Z" fill="#1AFFB6"/>
<path d="M239.345 23.8591L227.522 32.3098L235.992 44.118L247.815 35.6673L239.345 23.8591Z" fill="#1AFFB6"/>
<path d="M76.1171 189.086C1.16793 189.086 0.38199 188.609 0 188.381L0.676167 187.254C0.640458 187.232 0.602108 187.214 0.562009 187.202C4.74634 188.24 191.079 187.64 289.031 187.158V188.473C288.315 188.473 216.584 188.819 145.543 188.99C117.245 189.051 94.457 189.086 76.1171 189.086Z" fill="#2A2C64"/>
<path d="M70.4093 162.65C70.4093 162.65 61.3337 166.981 60.4161 173.849C59.4984 180.718 55.8278 171.101 50.3175 172.473C44.8071 173.845 47.5645 183.923 40.6843 181.174C33.8041 178.426 27.3849 183.462 19.1304 188.043H90.6811C90.6811 188.043 74.9054 187.162 70.4093 162.65Z" fill="#2A2C64"/>
<path d="M191.114 187.583C191.114 187.583 199.829 186.211 203.496 182.546C207.162 178.882 211.754 187.583 213.594 184.834C215.434 182.086 214.512 175.221 215.89 176.138C217.269 177.054 219.548 184.834 222.288 182.073C225.027 179.311 219.28 172.587 225.142 166.113C225.142 166.113 228.448 185.474 242.797 187.438L191.114 187.583Z" fill="#2A2C64"/>
<path d="M78.8658 43.8819L69.4477 29.5657L56.2185 38.2404L48.4426 43.3383L62.1372 64.1595L83.1379 50.3912L78.8658 43.8819ZM50.2648 43.7153L56.9825 39.31L69.0525 31.3892L77.7769 44.649L81.2894 50.0055L62.4885 62.3316L50.2648 43.7153Z" fill="#2A2C64"/>
</svg>
